<?xml version="1.0" encoding="UTF-8"?>
<svg id="Ebene_1" data-name="Ebene 1" xmlns="http://www.w3.org/2000/svg" version="1.1" viewBox="0 0 24 24">
  <defs>
    <style>
      .cls-1 {
        fill: #e2e2e2;
        stroke-width: 0px;
      }
    </style>
  </defs>
  <path class="cls-1" d="M12,2c-5.1,0-9.6,4.1-10,9.2,1.3.6,6.8,2.8,6.8,2.8l2.2-4.4-3.4-1.7c-.9-.5.2-1.8.5-2.4.1-.2.4-.4.6-.4h4.2s7.1,3.7,7.1,3.7c.3.2.5.6.3.9-2.4,4.5-1.1,4-5.6,1.8l-3.5,6.8c-1.1,2.2-4.6.8-3.9-1.5l-5-2.1c2.8,10,17.3,9.5,19.4-.7,1.3-6.1-3.5-12.1-9.8-12Z"/>
  <rect class="cls-1" x="16.7" y="9.6" width="2.1" height="1.4" transform="translate(.5 21.4) rotate(-62.9)"/>
</svg>